<svg width="40" height="40" viewBox="0 0 40 40" fill="none" xmlns="http://www.w3.org/2000/svg">
<path d="M23.5387 10.1908C23.3588 9.49149 22.7127 9.00026 21.9713 9H18.0301C17.2884 9 16.6411 9.4913 16.4612 10.1908L16.0413 11.8206L14.2404 12.4513L13.0314 12.1152C12.3185 11.9173 11.5585 12.2168 11.1878 12.8411L9.21641 16.1589C8.84574 16.7831 8.96004 17.5728 9.49263 18.0741L10.7774 19.2818V20.7182L9.49263 21.9259C8.9599 22.4272 8.84571 23.2168 9.21641 23.8411L11.1878 27.1589C11.5586 27.7832 12.3184 28.0828 13.0314 27.8848L14.2404 27.5472L16.0413 28.1779L16.4612 29.8092C16.6411 30.5087 17.2884 31 18.0301 31H21.9713C22.7127 30.9997 23.3588 30.5085 23.5387 29.8092L23.9569 28.1779L25.7579 27.5472L26.9685 27.8848C27.6815 28.0831 28.4428 27.7834 28.8136 27.1589L30.7834 23.8411C31.1542 23.2167 31.0403 22.4272 30.5072 21.9259L29.2224 20.7167V19.2818L30.5072 18.0741C31.0402 17.5728 31.1542 16.7833 30.7834 16.1589L28.8136 12.8411C28.4428 12.2166 27.6815 11.9169 26.9685 12.1152L25.7594 12.4513L23.9569 11.8206L23.5387 10.1908Z" stroke="#2C2C2B" stroke-width="2"/>
<rect x="17.4116" y="17.4116" width="5.17647" height="5.17647" rx="2.58824" stroke="#2C2C2B" stroke-width="2"/>
</svg>
