<svg width="22" height="22" viewBox="0 0 22 22" fill="none" xmlns="http://www.w3.org/2000/svg">
<rect x="4" y="4" width="14" height="14" rx="7" stroke="#2C2C2B" stroke-width="2"/>
<path d="M12.698 7.32063C13.4227 6.92392 14.289 7.52779 14.1677 8.34505L13.6091 12.1068C13.5632 12.4164 13.3748 12.6869 13.1003 12.8372L9.37376 14.8773C8.64912 15.2735 7.78375 14.67 7.90501 13.8529L8.4636 10.0902C8.50969 9.78068 8.69793 9.51095 8.97239 9.36067L12.698 7.32063ZM10.9997 10.0003C10.4476 10.0005 9.99974 10.4481 9.99974 11.0003C9.99991 11.5523 10.4477 12.0001 10.9997 12.0003C11.5519 12.0003 11.9996 11.5525 11.9997 11.0003C11.9997 10.448 11.552 10.0003 10.9997 10.0003Z" fill="#2C2C2B"/>
</svg>
